<svg version="1.0" xmlns="http://www.w3.org/2000/svg"
 width="673.000000pt" height="673.000000pt" viewBox="0 0 673.000000 673.000000"
 preserveAspectRatio="xMidYMid meet">

<g transform="translate(0.000000,673.000000) scale(0.100000,-0.100000)"
fill="#6dc24b" stroke="none">
<path d="M355 6716 c-85 -20 -147 -57 -216 -125 -70 -71 -109 -140 -128 -229
-16 -76 -16 -5919 0 -5994 38 -175 183 -323 352 -357 37 -8 931 -10 3032 -9
l2980 3 58 23 c117 48 221 152 269 270 l23 57 3 2980 c1 2101 -1 2995 -9 3032
-17 85 -63 164 -133 232 -69 65 -135 101 -224 120 -80 17 -5937 14 -6007 -3z
m5998 -210 c55 -20 103 -61 134 -114 l28 -47 3 -930 2 -930 -135 3 -135 4 0
-106 0 -106 110 0 c104 0 112 -1 135 -25 l25 -24 0 -1913 c0 -1903 -1 -1913
-21 -1958 -27 -60 -64 -98 -124 -126 l-50 -24 -2955 1 c-2443 0 -2962 2 -2993
13 -55 20 -103 61 -134 114 l-28 47 0 2980 0 2980 28 47 c31 53 79 94 134 114
56 20 5920 20 5976 0z"/>
<path d="M2434 4472 c-85 -30 -147 -92 -175 -176 -10 -28 -15 -54 -11 -58 14
-13 197 -27 201 -15 2 6 14 21 27 34 23 22 28 23 224 23 l201 0 -3 103 -3 102
-205 2 c-174 2 -213 0 -256 -15z"/>
<path d="M3060 4385 l0 -105 315 0 315 0 0 105 0 105 -315 0 -315 0 0 -105z"/>
<path d="M3857 4483 c-4 -3 -7 -51 -7 -105 l0 -98 320 0 320 0 0 105 0 105
-313 0 c-173 0 -317 -3 -320 -7z"/>
<path d="M4650 4385 l0 -105 320 0 321 0 -3 103 -3 102 -317 3 -318 2 0 -105z"/>
<path d="M5450 4385 l0 -105 315 0 315 0 0 105 0 105 -315 0 -315 0 0 -105z"/>
<path d="M2242 3743 l3 -318 103 -3 102 -3 0 321 0 320 -105 0 -105 0 2 -317z"/>
<path d="M2240 2945 l0 -315 105 0 105 0 0 315 0 315 -105 0 -105 0 0 -315z"/>
<path d="M2247 2463 c-4 -3 -7 -147 -7 -320 l0 -313 105 0 105 0 0 320 0 320
-98 0 c-54 0 -102 -3 -105 -7z"/>
<path d="M2242 1353 l3 -318 103 -3 102 -3 0 321 0 320 -105 0 -105 0 2 -317z"/>
<path d="M2240 558 c0 -172 4 -319 9 -327 8 -12 24 -10 105 8 l96 22 0 305 0
304 -105 0 -105 0 0 -312z"/>
</g>
</svg>
